<?xml version="1.0" encoding="UTF-8"?>
<svg width="76px" height="76px" viewBox="0 0 76 76" version="1.1" xmlns="http://www.w3.org/2000/svg" xmlns:xlink="http://www.w3.org/1999/xlink">
    <!-- Generator: sketchtool 57.1 (101010) - https://sketch.com -->
    <title>icon_76pt</title>
    <desc>Created with sketchtool.</desc>
    <defs>
        <linearGradient x1="50%" y1="0%" x2="50%" y2="100%" id="linearGradient-1">
            <stop stop-color="#FF8126" offset="0%"></stop>
            <stop stop-color="#FF117E" offset="100%"></stop>
        </linearGradient>
    </defs>
    <g id="Page-1" stroke="none" stroke-width="1" fill="none" fill-rule="evenodd">
        <g id="iOS-App-Icon-Template" transform="translate(-1100.000000, -423.000000)" fill="#000000">
            <rect x="0" y="0" width="2343" height="1162"></rect>
        </g>
        <g id="icon_76pt">
            <g id="Icon">
                <rect id="Background" fill="url(#linearGradient-1)" x="0" y="0" width="76" height="76"></rect>
                <g id="Glyph" stroke-width="1" transform="translate(13.804688, 11.726562)">
                    <polygon id="Head-Base" fill="#FFFFFF" style="mix-blend-mode: overlay;" points="0 0 24.1953125 18.109375 48.390625 0 48.390625 36.21875 24.1953125 54.328125 0 36.21875"></polygon>
                    <polygon id="Jowl" fill-opacity="0.700000048" fill="#FFFFFF" style="mix-blend-mode: overlay;" points="0 36.21875 24.1953125 18.109375 48.390625 36.21875 24.1953125 54.328125"></polygon>
                    <polygon id="Ears/Nose" fill="#FFFFFF" style="mix-blend-mode: soft-light;" points="0 0 24.1953125 54.328125 48.390625 0 24.1953125 18.109375"></polygon>
                    <path d="M0,0 L24.1953125,54.328125 L0,8.83203125 L0,0 Z M48.390625,0 L48.390625,8.83203125 L24.1953125,54.328125 L48.390625,0 Z" id="Shadows" fill-opacity="0.25" fill="#000000" style="mix-blend-mode: overlay;"></path>
                </g>
                <g id="Smooth-Corners" fill="#000000">
                    <path d="M-5.84278674e-16,54.3071276 C3.39482735e-16,61.8502119 0.785391694,64.5855166 2.26019311,67.3431554 C3.73499453,70.1007943 5.89920567,72.2650055 8.65684456,73.7398069 C11.4144834,75.2146083 14.1497881,76 21.6928724,76 L21.6928724,76 L0,76 Z M76,54.3071276 L76,76 L54.3071276,76 C61.8502119,76 64.5855166,75.2146083 67.3431554,73.7398069 C70.1007943,72.2650055 72.2650055,70.1007943 73.7398069,67.3431554 C75.2146083,64.5855166 76,61.8502119 76,54.3071276 L76,54.3071276 Z M76,21.6928724 C76,14.1497881 75.2146083,11.4144834 73.7398069,8.65684456 C72.2650055,5.89920567 70.1007943,3.73499453 67.3431554,2.26019311 C64.5855166,0.785391694 61.8502119,-5.09224103e-16 54.3071276,8.7641801e-16 L54.3071276,8.7641801e-16 L76,0 Z M0,0 L21.6928724,-8.7641801e-16 C14.1497881,5.09224103e-16 11.4144834,0.785391694 8.65684456,2.26019311 C5.89920567,3.73499453 3.73499453,5.89920567 2.26019311,8.65684456 C0.785391694,11.4144834 -3.39482735e-16,14.1497881 5.84278674e-16,21.6928724 L5.84278674e-16,21.6928724 L0,0 Z"></path>
                </g>
            </g>
        </g>
    </g>
</svg>