<?xml version="1.0" encoding="UTF-8"?>
<svg width="58px" height="58px" viewBox="0 0 58 58" version="1.1" xmlns="http://www.w3.org/2000/svg" xmlns:xlink="http://www.w3.org/1999/xlink">
    <!-- Generator: sketchtool 57.1 (101010) - https://sketch.com -->
    <title>icon_29pt@2x</title>
    <desc>Created with sketchtool.</desc>
    <defs>
        <linearGradient x1="50%" y1="0%" x2="50%" y2="100%" id="linearGradient-1">
            <stop stop-color="#FF8126" offset="0%"></stop>
            <stop stop-color="#FF117E" offset="100%"></stop>
        </linearGradient>
    </defs>
    <g id="Page-1" stroke="none" stroke-width="1" fill="none" fill-rule="evenodd">
        <g id="iOS-App-Icon-Template" transform="translate(-759.000000, -724.000000)" fill="#000000">
            <rect x="0" y="0" width="2343" height="1162"></rect>
        </g>
        <g id="icon_29pt@2x">
            <g id="Icon">
                <rect id="Background" fill="url(#linearGradient-1)" x="0" y="0" width="58" height="58"></rect>
                <g id="Glyph" stroke-width="1" transform="translate(10.535156, 8.949219)">
                    <polygon id="Head-Base" fill="#FFFFFF" style="mix-blend-mode: overlay;" points="0 0 18.4648438 13.8203125 36.9296875 0 36.9296875 27.640625 18.4648438 41.4609375 0 27.640625"></polygon>
                    <polygon id="Jowl" fill-opacity="0.700000048" fill="#FFFFFF" style="mix-blend-mode: overlay;" points="0 27.640625 18.4648438 13.8203125 36.9296875 27.640625 18.4648438 41.4609375"></polygon>
                    <polygon id="Ears/Nose" fill="#FFFFFF" style="mix-blend-mode: soft-light;" points="0 0 18.4648438 41.4609375 36.9296875 0 18.4648438 13.8203125"></polygon>
                    <path d="M0,0 L18.4648438,41.4609375 L0,6.74023437 L0,0 Z M36.9296875,0 L36.9296875,6.74023437 L18.4648438,41.4609375 L36.9296875,0 Z" id="Shadows" fill-opacity="0.25" fill="#000000" style="mix-blend-mode: overlay;"></path>
                </g>
                <g id="Smooth-Corners" fill="#000000">
                    <path d="M-4.45896882e-16,41.4449131 C2.5907893e-16,47.2014775 0.599377872,49.2889468 1.72488422,51.3934607 C2.85039056,53.4979746 4.50202538,55.1496094 6.60653927,56.2751158 C8.71105315,57.4006221 10.7985225,58 16.5550869,58 L16.5550869,58 L0,58 Z M58,41.4449131 L58,58 L41.4449131,58 C47.2014775,58 49.2889468,57.4006221 51.3934607,56.2751158 C53.4979746,55.1496094 55.1496094,53.4979746 56.2751158,51.3934607 C57.4006221,49.2889468 58,47.2014775 58,41.4449131 L58,41.4449131 Z M58,16.5550869 C58,10.7985225 57.4006221,8.71105315 56.2751158,6.60653927 C55.1496094,4.50202538 53.4979746,2.85039056 51.3934607,1.72488422 C49.2889468,0.599377872 47.2014775,-3.88618394e-16 41.4449131,6.68845324e-16 L41.4449131,6.68845324e-16 L58,0 Z M0,0 L16.5550869,-6.68845324e-16 C10.7985225,3.88618394e-16 8.71105315,0.599377872 6.60653927,1.72488422 C4.50202538,2.85039056 2.85039056,4.50202538 1.72488422,6.60653927 C0.599377872,8.71105315 -2.5907893e-16,10.7985225 4.45896882e-16,16.5550869 L4.45896882e-16,16.5550869 L0,0 Z"></path>
                </g>
            </g>
        </g>
    </g>
</svg>