<?xml version="1.0" encoding="UTF-8"?>
<svg width="29px" height="29px" viewBox="0 0 29 29" version="1.1" xmlns="http://www.w3.org/2000/svg" xmlns:xlink="http://www.w3.org/1999/xlink">
    <!-- Generator: sketchtool 57.1 (101010) - https://sketch.com -->
    <title>icon_29pt</title>
    <desc>Created with sketchtool.</desc>
    <defs>
        <linearGradient x1="50%" y1="0%" x2="50%" y2="100%" id="linearGradient-1">
            <stop stop-color="#FF8126" offset="0%"></stop>
            <stop stop-color="#FF117E" offset="100%"></stop>
        </linearGradient>
    </defs>
    <g id="Page-1" stroke="none" stroke-width="1" fill="none" fill-rule="evenodd">
        <g id="iOS-App-Icon-Template" transform="translate(-700.000000, -724.000000)" fill="#000000">
            <rect x="0" y="0" width="2343" height="1162"></rect>
        </g>
        <g id="icon_29pt">
            <g id="Icon">
                <rect id="Background" fill="url(#linearGradient-1)" x="0" y="0" width="29" height="29"></rect>
                <g id="Smooth-Corners" fill="#000000">
                    <path d="M-2.22948441e-16,20.7224566 C1.29539465e-16,23.6007388 0.299688936,24.6444734 0.862442108,25.6967304 C1.42519528,26.7489873 2.25101269,27.5748047 3.30326963,28.1375579 C4.35552658,28.7003111 5.39926125,29 8.27754343,29 L8.27754343,29 L0,29 Z M29,20.7224566 L29,29 L20.7224566,29 C23.6007388,29 24.6444734,28.7003111 25.6967304,28.1375579 C26.7489873,27.5748047 27.5748047,26.7489873 28.1375579,25.6967304 C28.7003111,24.6444734 29,23.6007388 29,20.7224566 L29,20.7224566 Z M29,8.27754343 C29,5.39926125 28.7003111,4.35552658 28.1375579,3.30326963 C27.5748047,2.25101269 26.7489873,1.42519528 25.6967304,0.862442108 C24.6444734,0.299688936 23.6007388,-1.94309197e-16 20.7224566,3.34422662e-16 L20.7224566,3.34422662e-16 L29,0 Z M0,0 L8.27754343,-3.34422662e-16 C5.39926125,1.94309197e-16 4.35552658,0.299688936 3.30326963,0.862442108 C2.25101269,1.42519528 1.42519528,2.25101269 0.862442108,3.30326963 C0.299688936,4.35552658 -1.29539465e-16,5.39926125 2.22948441e-16,8.27754343 L2.22948441e-16,8.27754343 L0,0 Z"></path>
                </g>
            </g>
        </g>
    </g>
</svg>