<?xml version="1.0" encoding="UTF-8"?>
<svg width="152px" height="152px" viewBox="0 0 152 152" version="1.1" xmlns="http://www.w3.org/2000/svg" xmlns:xlink="http://www.w3.org/1999/xlink">
    <!-- Generator: sketchtool 57.1 (101010) - https://sketch.com -->
    <title>icon_76pt@2x</title>
    <desc>Created with sketchtool.</desc>
    <defs>
        <linearGradient x1="50%" y1="0%" x2="50%" y2="100%" id="linearGradient-1">
            <stop stop-color="#FF8126" offset="0%"></stop>
            <stop stop-color="#FF117E" offset="100%"></stop>
        </linearGradient>
    </defs>
    <g id="Page-1" stroke="none" stroke-width="1" fill="none" fill-rule="evenodd">
        <g id="iOS-App-Icon-Template" transform="translate(-1206.000000, -423.000000)" fill="#000000">
            <rect x="0" y="0" width="2343" height="1162"></rect>
        </g>
        <g id="icon_76pt@2x">
            <g id="Icon">
                <rect id="Background" fill="url(#linearGradient-1)" x="0" y="0" width="152" height="152"></rect>
                <g id="Smooth-Corners" fill="#000000">
                    <path d="M0.000860072326,109.220613 C0.0427053983,123.848286 1.61064289,129.245564 4.52038622,134.686311 C7.46998905,140.201589 11.7984113,144.530011 17.3136891,147.479614 C22.8289669,150.429217 28.2995762,152 43.3857449,152 L43.3857449,152 L0,152 Z M152,108.614255 L152,152 L108.614255,152 C123.700424,152 129.171033,150.429217 134.686311,147.479614 C140.201589,144.530011 144.530011,140.201589 147.479614,134.686311 C150.429217,129.171033 152,123.700424 152,108.614255 L152,108.614255 Z M152,43.3857449 C152,28.2995762 150.429217,22.8289669 147.479614,17.3136891 C144.530011,11.7984113 140.201589,7.46998905 134.686311,4.52038622 C129.171033,1.57078339 123.700424,-1.01844821e-15 108.614255,1.75283602e-15 L152,0 Z M0,0 L42.7793874,0.000860072326 C28.1517137,0.0427053983 22.7544361,1.61064289 17.3136891,4.52038622 C11.7984113,7.46998905 7.46998905,11.7984113 4.52038622,17.3136891 C1.57078339,22.8289669 -6.78965471e-16,28.2995762 1.16855735e-15,43.3857449 L0,0 Z"></path>
                </g>
            </g>
        </g>
    </g>
</svg>