<?xml version="1.0" encoding="UTF-8"?>
<svg width="180px" height="180px" viewBox="0 0 180 180" version="1.1" xmlns="http://www.w3.org/2000/svg" xmlns:xlink="http://www.w3.org/1999/xlink">
    <!-- Generator: sketchtool 57.1 (101010) - https://sketch.com -->
    <title>icon_60pt@3x</title>
    <desc>Created with sketchtool.</desc>
    <defs>
        <linearGradient x1="50%" y1="0%" x2="50%" y2="100%" id="linearGradient-1">
            <stop stop-color="#FF8126" offset="0%"></stop>
            <stop stop-color="#FF117E" offset="100%"></stop>
        </linearGradient>
    </defs>
    <g id="Page-1" stroke="none" stroke-width="1" fill="none" fill-rule="evenodd">
        <g id="iOS-App-Icon-Template" transform="translate(-850.000000, -423.000000)" fill="#000000">
            <rect x="0" y="0" width="2343" height="1162"></rect>
        </g>
        <g id="icon_60pt@3x">
            <g id="Icon">
                <rect id="Background" fill="url(#linearGradient-1)" x="0" y="0" width="180" height="180"></rect>
                <g id="Glyph" stroke-width="1" transform="translate(32.695312, 27.773438)">
                    <polygon id="Head-Base" fill="#FFFFFF" style="mix-blend-mode: overlay;" points="0 0 57.3046875 42.890625 114.609375 0 114.609375 85.78125 57.3046875 128.671875 0 85.78125"></polygon>
                    <polygon id="Jowl" fill-opacity="0.700000048" fill="#FFFFFF" style="mix-blend-mode: overlay;" points="0 85.78125 57.3046875 42.890625 114.609375 85.78125 57.3046875 128.671875"></polygon>
                    <polygon id="Ears/Nose" fill="#FFFFFF" style="mix-blend-mode: soft-light;" points="0 0 57.3046875 128.671875 114.609375 0 57.3046875 42.890625"></polygon>
                    <path d="M0,0 L57.3046875,128.671875 L0,20.9179688 L0,0 Z M114.609375,0 L114.609375,20.9179688 L57.3046875,128.671875 L114.609375,0 Z" id="Shadows" fill-opacity="0.25" fill="#000000" style="mix-blend-mode: overlay;"></path>
                </g>
                <g id="Smooth-Corners" fill="#000000">
                    <path d="M0.000754160539,129.240748 C0.0434797981,146.638011 1.90075393,153.041642 5.35308895,159.496947 C8.84603967,166.028197 13.9718029,171.15396 20.5030529,174.646911 C27.0343029,178.139862 33.512656,180 51.3778558,180 L51.3778558,180 L0,180 Z M180,128.622144 L180,180 L128.622144,180 C146.487344,180 152.965697,178.139862 159.496947,174.646911 C166.028197,171.15396 171.15396,166.028197 174.646911,159.496947 C178.139862,152.965697 180,146.487344 180,128.622144 L180,128.622144 Z M180,51.3778558 C180,33.512656 178.139862,27.0343029 174.646911,20.5030529 C171.15396,13.9718029 166.028197,8.84603967 159.496947,5.35308895 C152.965697,1.86013822 146.487344,-1.20605709e-15 128.622144,2.07572687e-15 L180,0 Z M0,0 L50.7592519,0.000754160539 C33.3619895,0.0434797981 26.9583581,1.90075393 20.5030529,5.35308895 C13.9718029,8.84603967 8.84603967,13.9718029 5.35308895,20.5030529 C1.86013822,27.0343029 -8.04038057e-16,33.512656 1.38381791e-15,51.3778558 L0,0 Z"></path>
                </g>
            </g>
        </g>
    </g>
</svg>