<?xml version="1.0" encoding="UTF-8"?>
<svg width="120px" height="120px" viewBox="0 0 120 120" version="1.1" xmlns="http://www.w3.org/2000/svg" xmlns:xlink="http://www.w3.org/1999/xlink">
    <!-- Generator: sketchtool 57.1 (101010) - https://sketch.com -->
    <title>icon_60pt@2x</title>
    <desc>Created with sketchtool.</desc>
    <defs>
        <linearGradient x1="50%" y1="0%" x2="50%" y2="100%" id="linearGradient-1">
            <stop stop-color="#FF8126" offset="0%"></stop>
            <stop stop-color="#FF117E" offset="100%"></stop>
        </linearGradient>
    </defs>
    <g id="Page-1" stroke="none" stroke-width="1" fill="none" fill-rule="evenodd">
        <g id="iOS-App-Icon-Template" transform="translate(-700.000000, -423.000000)" fill="#000000">
            <rect x="0" y="0" width="2343" height="1162"></rect>
        </g>
        <g id="icon_60pt@2x">
            <g id="Icon">
                <rect id="Background" fill="url(#linearGradient-1)" x="0" y="0" width="120" height="120"></rect>
                <g id="Smooth-Corners" fill="#000000">
                    <path d="M0.000936727358,86.309538 C0.0396422657,97.7953462 1.27705459,102.046245 3.56872596,106.331298 C5.89735978,110.685465 9.31453526,114.10264 13.6687019,116.431274 C18.0228686,118.759908 22.3417707,120 34.2519038,120 L34.2519038,120 L0,120 Z M120,85.7480962 L120,120 L85.7480962,120 C97.6582293,120 101.977131,118.759908 106.331298,116.431274 C110.685465,114.10264 114.10264,110.685465 116.431274,106.331298 C118.759908,101.977131 120,97.6582293 120,85.7480962 L120,85.7480962 Z M120,34.2519038 C120,22.3417707 118.759908,18.0228686 116.431274,13.6687019 C114.10264,9.31453526 110.685465,5.89735978 106.331298,3.56872596 C101.977131,1.24009215 97.6582293,-8.04038057e-16 85.7480962,1.38381791e-15 L120,0 Z M0,0 L33.690462,0.000936727358 C22.2046538,0.0396422657 17.9537548,1.27705459 13.6687019,3.56872596 C9.31453526,5.89735978 5.89735978,9.31453526 3.56872596,13.6687019 C1.24009215,18.0228686 -5.36025372e-16,22.3417707 9.22545274e-16,34.2519038 L0,0 Z"></path>
                </g>
            </g>
        </g>
    </g>
</svg>