<?xml version="1.0" encoding="UTF-8"?>
<svg width="20px" height="20px" viewBox="0 0 20 20" version="1.1" xmlns="http://www.w3.org/2000/svg" xmlns:xlink="http://www.w3.org/1999/xlink">
    <!-- Generator: sketchtool 57.1 (101010) - https://sketch.com -->
    <title>icon_20pt</title>
    <desc>Created with sketchtool.</desc>
    <defs>
        <linearGradient x1="50%" y1="0%" x2="50%" y2="100%" id="linearGradient-1">
            <stop stop-color="#FF8126" offset="0%"></stop>
            <stop stop-color="#FF117E" offset="100%"></stop>
        </linearGradient>
    </defs>
    <g id="Page-1" stroke="none" stroke-width="1" fill="none" fill-rule="evenodd">
        <g id="iOS-App-Icon-Template" transform="translate(-1375.000000, -724.000000)" fill="#000000">
            <rect x="0" y="0" width="2343" height="1162"></rect>
        </g>
        <g id="icon_20pt">
            <g id="Icon">
                <rect id="Background" fill="url(#linearGradient-1)" x="0" y="0" width="20" height="20"></rect>
                <g id="Glyph" stroke-width="1" transform="translate(3.632812, 3.085938)">
                    <polygon id="Head-Base" fill="#FFFFFF" style="mix-blend-mode: overlay;" points="0 0 6.3671875 4.765625 12.734375 0 12.734375 9.53125 6.3671875 14.296875 0 9.53125"></polygon>
                    <polygon id="Jowl" fill-opacity="0.700000048" fill="#FFFFFF" style="mix-blend-mode: overlay;" points="0 9.53125 6.3671875 4.765625 12.734375 9.53125 6.3671875 14.296875"></polygon>
                    <polygon id="Ears/Nose" fill="#FFFFFF" style="mix-blend-mode: soft-light;" points="0 0 6.3671875 14.296875 12.734375 0 6.3671875 4.765625"></polygon>
                    <path d="M0,0 L6.3671875,14.296875 L0,2.32421875 L0,0 Z M12.734375,0 L12.734375,2.32421875 L6.3671875,14.296875 L12.734375,0 Z" id="Shadows" fill-opacity="0.25" fill="#000000" style="mix-blend-mode: overlay;"></path>
                </g>
                <g id="Smooth-Corners" fill="#000000">
                    <path d="M-1.53757546e-16,14.2913494 C8.93375619e-17,16.2763716 0.206682025,16.9961886 0.594787661,17.721883 C0.982893297,18.4475775 1.55242254,19.0171067 2.27811699,19.4052123 C3.00381143,19.793318 3.72362845,20 5.70865064,20 L5.70865064,20 L0,20 Z M20,14.2913494 L20,20 L14.2913494,20 C16.2763716,20 16.9961886,19.793318 17.721883,19.4052123 C18.4475775,19.0171067 19.0171067,18.4475775 19.4052123,17.721883 C19.793318,16.9961886 20,16.2763716 20,14.2913494 L20,14.2913494 Z M20,5.70865064 C20,3.72362845 19.793318,3.00381143 19.4052123,2.27811699 C19.0171067,1.55242254 18.4475775,0.982893297 17.721883,0.594787661 C16.9961886,0.206682025 16.2763716,-1.34006343e-16 14.2913494,2.30636319e-16 L14.2913494,2.30636319e-16 L20,0 Z M0,0 L5.70865064,-2.30636319e-16 C3.72362845,1.34006343e-16 3.00381143,0.206682025 2.27811699,0.594787661 C1.55242254,0.982893297 0.982893297,1.55242254 0.594787661,2.27811699 C0.206682025,3.00381143 -8.93375619e-17,3.72362845 1.53757546e-16,5.70865064 L1.53757546e-16,5.70865064 L0,0 Z"></path>
                </g>
            </g>
        </g>
    </g>
</svg>