<?xml version="1.0" encoding="UTF-8"?>
<svg width="60px" height="60px" viewBox="0 0 60 60" version="1.1" xmlns="http://www.w3.org/2000/svg" xmlns:xlink="http://www.w3.org/1999/xlink">
    <!-- Generator: sketchtool 57.1 (101010) - https://sketch.com -->
    <title>icon_20pt@3x</title>
    <desc>Created with sketchtool.</desc>
    <defs>
        <linearGradient x1="50%" y1="0%" x2="50%" y2="100%" id="linearGradient-1">
            <stop stop-color="#FF8126" offset="0%"></stop>
            <stop stop-color="#FF117E" offset="100%"></stop>
        </linearGradient>
    </defs>
    <g id="Page-1" stroke="none" stroke-width="1" fill="none" fill-rule="evenodd">
        <g id="iOS-App-Icon-Template" transform="translate(-1495.000000, -724.000000)" fill="#000000">
            <rect x="0" y="0" width="2343" height="1162"></rect>
        </g>
        <g id="icon_20pt@3x">
            <g id="Icon">
                <rect id="Background" fill="url(#linearGradient-1)" x="0" y="0" width="60" height="60"></rect>
                <g id="Glyph" stroke-width="1" transform="translate(10.898438, 9.257812)">
                    <polygon id="Head-Base" fill="#FFFFFF" style="mix-blend-mode: overlay;" points="0 0 19.1015625 14.296875 38.203125 0 38.203125 28.59375 19.1015625 42.890625 0 28.59375"></polygon>
                    <polygon id="Jowl" fill-opacity="0.700000048" fill="#FFFFFF" style="mix-blend-mode: overlay;" points="0 28.59375 19.1015625 14.296875 38.203125 28.59375 19.1015625 42.890625"></polygon>
                    <polygon id="Ears/Nose" fill="#FFFFFF" style="mix-blend-mode: soft-light;" points="0 0 19.1015625 42.890625 38.203125 0 19.1015625 14.296875"></polygon>
                    <path d="M0,0 L19.1015625,42.890625 L0,6.97265625 L0,0 Z M38.203125,0 L38.203125,6.97265625 L19.1015625,42.890625 L38.203125,0 Z" id="Shadows" fill-opacity="0.25" fill="#000000" style="mix-blend-mode: overlay;"></path>
                </g>
                <g id="Smooth-Corners" fill="#000000">
                    <path d="M-4.61272637e-16,42.8740481 C2.68012686e-16,48.8291147 0.620046074,50.9885657 1.78436298,53.165649 C2.94867989,55.3427324 4.65726763,57.0513201 6.83435096,58.215637 C9.0114343,59.3799539 11.1708853,60 17.1259519,60 L17.1259519,60 L0,60 Z M60,42.8740481 L60,60 L42.8740481,60 C48.8291147,60 50.9885657,59.3799539 53.165649,58.215637 C55.3427324,57.0513201 57.0513201,55.3427324 58.215637,53.165649 C59.3799539,50.9885657 60,48.8291147 60,42.8740481 L60,42.8740481 Z M60,17.1259519 C60,11.1708853 59.3799539,9.0114343 58.215637,6.83435096 C57.0513201,4.65726763 55.3427324,2.94867989 53.165649,1.78436298 C50.9885657,0.620046074 48.8291147,-4.02019029e-16 42.8740481,6.91908956e-16 L42.8740481,6.91908956e-16 L60,0 Z M0,0 L17.1259519,-6.91908956e-16 C11.1708853,4.02019029e-16 9.0114343,0.620046074 6.83435096,1.78436298 C4.65726763,2.94867989 2.94867989,4.65726763 1.78436298,6.83435096 C0.620046074,9.0114343 -2.68012686e-16,11.1708853 4.61272637e-16,17.1259519 L4.61272637e-16,17.1259519 L0,0 Z"></path>
                </g>
            </g>
        </g>
    </g>
</svg>